<svg xmlns="http://www.w3.org/2000/svg" xmlns:xlink="http://www.w3.org/1999/xlink" width="100" zoomAndPan="magnify" viewBox="0 0 75 74.999997" height="100" preserveAspectRatio="xMidYMid meet" version="1.0"><defs><clipPath id="1352e716a1"><path d="M 26.703125 4.636719 L 37 4.636719 L 37 15 L 26.703125 15 Z M 26.703125 4.636719 " clip-rule="nonzero"/></clipPath><clipPath id="3ae663029f"><path d="M 26.703125 18 L 37 18 L 37 28 L 26.703125 28 Z M 26.703125 18 " clip-rule="nonzero"/></clipPath><clipPath id="9c82ab9055"><path d="M 26.703125 31 L 37 31 L 37 42 L 26.703125 42 Z M 26.703125 31 " clip-rule="nonzero"/></clipPath><clipPath id="4a47bd2c33"><path d="M 26.703125 45 L 37 45 L 37 55 L 26.703125 55 Z M 26.703125 45 " clip-rule="nonzero"/></clipPath><clipPath id="fe1cdba3b4"><path d="M 26.703125 58 L 37 58 L 37 68.386719 L 26.703125 68.386719 Z M 26.703125 58 " clip-rule="nonzero"/></clipPath><clipPath id="250bef261f"><path d="M 40 4.636719 L 50 4.636719 L 50 15 L 40 15 Z M 40 4.636719 " clip-rule="nonzero"/></clipPath><clipPath id="f8362014b6"><path d="M 40 58 L 50 58 L 50 68.386719 L 40 68.386719 Z M 40 58 " clip-rule="nonzero"/></clipPath><clipPath id="0a2a2ec333"><path d="M 53 4.636719 L 64 4.636719 L 64 15 L 53 15 Z M 53 4.636719 " clip-rule="nonzero"/></clipPath><clipPath id="42409b3d9c"><path d="M 53 58 L 64 58 L 64 68.386719 L 53 68.386719 Z M 53 58 " clip-rule="nonzero"/></clipPath><clipPath id="b1c6afc10f"><path d="M 67 4.636719 L 75 4.636719 L 75 15 L 67 15 Z M 67 4.636719 " clip-rule="nonzero"/></clipPath><clipPath id="7ad87f3c6a"><path d="M 67 58 L 75 58 L 75 68.386719 L 67 68.386719 Z M 67 58 " clip-rule="nonzero"/></clipPath><clipPath id="e8c892b9db"><path d="M 52.871094 0 L 75 0 L 75 75 L 52.871094 75 Z M 52.871094 0 " clip-rule="nonzero"/></clipPath><clipPath id="e0156c0bdb"><path d="M 37.871094 0 L 75 0 L 75 41.652344 L 37.871094 41.652344 Z M 37.871094 0 " clip-rule="nonzero"/></clipPath></defs><g clip-path="url(#1352e716a1)"><path fill="#d9d9d9" d="M 36.328125 9.453125 C 36.328125 9.769531 36.296875 10.082031 36.234375 10.394531 C 36.171875 10.703125 36.082031 11.003906 35.960938 11.296875 C 35.839844 11.589844 35.691406 11.867188 35.515625 12.128906 C 35.339844 12.390625 35.140625 12.632812 34.917969 12.855469 C 34.695312 13.082031 34.453125 13.28125 34.1875 13.457031 C 33.925781 13.632812 33.648438 13.78125 33.355469 13.902344 C 33.066406 14.019531 32.765625 14.113281 32.453125 14.175781 C 32.144531 14.234375 31.832031 14.265625 31.515625 14.265625 C 31.199219 14.265625 30.886719 14.234375 30.578125 14.175781 C 30.265625 14.113281 29.964844 14.019531 29.671875 13.902344 C 29.382812 13.78125 29.105469 13.632812 28.839844 13.457031 C 28.578125 13.28125 28.335938 13.082031 28.113281 12.855469 C 27.890625 12.632812 27.6875 12.390625 27.515625 12.128906 C 27.339844 11.867188 27.191406 11.589844 27.070312 11.296875 C 26.949219 11.003906 26.855469 10.703125 26.796875 10.394531 C 26.734375 10.082031 26.703125 9.769531 26.703125 9.453125 C 26.703125 9.136719 26.734375 8.824219 26.796875 8.515625 C 26.855469 8.207031 26.949219 7.90625 27.070312 7.613281 C 27.191406 7.320312 27.339844 7.042969 27.515625 6.78125 C 27.6875 6.519531 27.890625 6.273438 28.113281 6.050781 C 28.335938 5.828125 28.578125 5.628906 28.839844 5.453125 C 29.105469 5.277344 29.382812 5.128906 29.671875 5.007812 C 29.964844 4.886719 30.265625 4.796875 30.578125 4.734375 C 30.886719 4.671875 31.199219 4.640625 31.515625 4.640625 C 31.832031 4.640625 32.144531 4.671875 32.453125 4.734375 C 32.765625 4.796875 33.066406 4.886719 33.355469 5.007812 C 33.648438 5.128906 33.925781 5.277344 34.1875 5.453125 C 34.453125 5.628906 34.695312 5.828125 34.917969 6.050781 C 35.140625 6.273438 35.339844 6.519531 35.515625 6.78125 C 35.691406 7.042969 35.839844 7.320312 35.960938 7.613281 C 36.082031 7.90625 36.171875 8.207031 36.234375 8.515625 C 36.296875 8.824219 36.328125 9.136719 36.328125 9.453125 Z M 36.328125 9.453125 " fill-opacity="1" fill-rule="nonzero"/></g><g clip-path="url(#3ae663029f)"><path fill="#d9d9d9" d="M 36.328125 23 C 36.328125 23.316406 36.296875 23.628906 36.234375 23.9375 C 36.171875 24.25 36.082031 24.550781 35.960938 24.84375 C 35.839844 25.132812 35.691406 25.410156 35.515625 25.675781 C 35.339844 25.9375 35.140625 26.179688 34.917969 26.402344 C 34.695312 26.625 34.453125 26.824219 34.1875 27 C 33.925781 27.175781 33.648438 27.324219 33.355469 27.445312 C 33.066406 27.566406 32.765625 27.660156 32.453125 27.71875 C 32.144531 27.78125 31.832031 27.8125 31.515625 27.8125 C 31.199219 27.8125 30.886719 27.78125 30.578125 27.71875 C 30.265625 27.660156 29.964844 27.566406 29.671875 27.445312 C 29.382812 27.324219 29.105469 27.175781 28.839844 27 C 28.578125 26.824219 28.335938 26.625 28.113281 26.402344 C 27.890625 26.179688 27.6875 25.9375 27.515625 25.675781 C 27.339844 25.410156 27.191406 25.132812 27.070312 24.84375 C 26.949219 24.550781 26.855469 24.25 26.796875 23.9375 C 26.734375 23.628906 26.703125 23.316406 26.703125 23 C 26.703125 22.683594 26.734375 22.371094 26.796875 22.0625 C 26.855469 21.75 26.949219 21.449219 27.070312 21.160156 C 27.191406 20.867188 27.339844 20.589844 27.515625 20.328125 C 27.6875 20.0625 27.890625 19.820312 28.113281 19.597656 C 28.335938 19.375 28.578125 19.175781 28.839844 19 C 29.105469 18.824219 29.382812 18.675781 29.671875 18.554688 C 29.964844 18.433594 30.265625 18.34375 30.578125 18.28125 C 30.886719 18.21875 31.199219 18.1875 31.515625 18.1875 C 31.832031 18.1875 32.144531 18.21875 32.453125 18.28125 C 32.765625 18.34375 33.066406 18.433594 33.355469 18.554688 C 33.648438 18.675781 33.925781 18.824219 34.1875 19 C 34.453125 19.175781 34.695312 19.375 34.917969 19.597656 C 35.140625 19.820312 35.339844 20.0625 35.515625 20.328125 C 35.691406 20.589844 35.839844 20.867188 35.960938 21.160156 C 36.082031 21.449219 36.171875 21.75 36.234375 22.0625 C 36.296875 22.371094 36.328125 22.683594 36.328125 23 Z M 36.328125 23 " fill-opacity="1" fill-rule="nonzero"/></g><g clip-path="url(#9c82ab9055)"><path fill="#d9d9d9" d="M 36.328125 36.546875 C 36.328125 36.863281 36.296875 37.175781 36.234375 37.484375 C 36.171875 37.792969 36.082031 38.09375 35.960938 38.386719 C 35.839844 38.679688 35.691406 38.957031 35.515625 39.21875 C 35.339844 39.480469 35.140625 39.726562 34.917969 39.949219 C 34.695312 40.171875 34.453125 40.371094 34.1875 40.546875 C 33.925781 40.722656 33.648438 40.871094 33.355469 40.992188 C 33.066406 41.113281 32.765625 41.203125 32.453125 41.265625 C 32.144531 41.328125 31.832031 41.359375 31.515625 41.359375 C 31.199219 41.359375 30.886719 41.328125 30.578125 41.265625 C 30.265625 41.203125 29.964844 41.113281 29.671875 40.992188 C 29.382812 40.871094 29.105469 40.722656 28.839844 40.546875 C 28.578125 40.371094 28.335938 40.171875 28.113281 39.949219 C 27.890625 39.726562 27.6875 39.480469 27.515625 39.21875 C 27.339844 38.957031 27.191406 38.679688 27.070312 38.386719 C 26.949219 38.09375 26.855469 37.792969 26.796875 37.484375 C 26.734375 37.175781 26.703125 36.863281 26.703125 36.546875 C 26.703125 36.230469 26.734375 35.917969 26.796875 35.605469 C 26.855469 35.296875 26.949219 34.996094 27.070312 34.703125 C 27.191406 34.414062 27.339844 34.136719 27.515625 33.871094 C 27.6875 33.609375 27.890625 33.367188 28.113281 33.144531 C 28.335938 32.917969 28.578125 32.71875 28.839844 32.542969 C 29.105469 32.371094 29.382812 32.222656 29.671875 32.101562 C 29.964844 31.980469 30.265625 31.886719 30.578125 31.828125 C 30.886719 31.765625 31.199219 31.734375 31.515625 31.734375 C 31.832031 31.734375 32.144531 31.765625 32.453125 31.828125 C 32.765625 31.886719 33.066406 31.980469 33.355469 32.101562 C 33.648438 32.222656 33.925781 32.371094 34.1875 32.542969 C 34.453125 32.71875 34.695312 32.917969 34.917969 33.144531 C 35.140625 33.367188 35.339844 33.609375 35.515625 33.871094 C 35.691406 34.136719 35.839844 34.414062 35.960938 34.703125 C 36.082031 34.996094 36.171875 35.296875 36.234375 35.605469 C 36.296875 35.917969 36.328125 36.230469 36.328125 36.546875 Z M 36.328125 36.546875 " fill-opacity="1" fill-rule="nonzero"/></g><g clip-path="url(#4a47bd2c33)"><path fill="#d9d9d9" d="M 36.328125 50.089844 C 36.328125 50.40625 36.296875 50.71875 36.234375 51.03125 C 36.171875 51.339844 36.082031 51.640625 35.960938 51.933594 C 35.839844 52.226562 35.691406 52.503906 35.515625 52.765625 C 35.339844 53.027344 35.140625 53.269531 34.917969 53.496094 C 34.695312 53.71875 34.453125 53.917969 34.1875 54.09375 C 33.925781 54.269531 33.648438 54.417969 33.355469 54.539062 C 33.066406 54.660156 32.765625 54.75 32.453125 54.8125 C 32.144531 54.875 31.832031 54.902344 31.515625 54.902344 C 31.199219 54.902344 30.886719 54.875 30.578125 54.8125 C 30.265625 54.75 29.964844 54.660156 29.671875 54.539062 C 29.382812 54.417969 29.105469 54.269531 28.839844 54.09375 C 28.578125 53.917969 28.335938 53.71875 28.113281 53.496094 C 27.890625 53.269531 27.6875 53.027344 27.515625 52.765625 C 27.339844 52.503906 27.191406 52.226562 27.070312 51.933594 C 26.949219 51.640625 26.855469 51.339844 26.796875 51.03125 C 26.734375 50.71875 26.703125 50.40625 26.703125 50.089844 C 26.703125 49.777344 26.734375 49.460938 26.796875 49.152344 C 26.855469 48.84375 26.949219 48.542969 27.070312 48.25 C 27.191406 47.957031 27.339844 47.679688 27.515625 47.417969 C 27.6875 47.15625 27.890625 46.914062 28.113281 46.6875 C 28.335938 46.464844 28.578125 46.265625 28.839844 46.089844 C 29.105469 45.914062 29.382812 45.765625 29.671875 45.644531 C 29.964844 45.523438 30.265625 45.433594 30.578125 45.371094 C 30.886719 45.308594 31.199219 45.28125 31.515625 45.28125 C 31.832031 45.28125 32.144531 45.308594 32.453125 45.371094 C 32.765625 45.433594 33.066406 45.523438 33.355469 45.644531 C 33.648438 45.765625 33.925781 45.914062 34.1875 46.089844 C 34.453125 46.265625 34.695312 46.464844 34.917969 46.6875 C 35.140625 46.914062 35.339844 47.15625 35.515625 47.417969 C 35.691406 47.679688 35.839844 47.957031 35.960938 48.25 C 36.082031 48.542969 36.171875 48.84375 36.234375 49.152344 C 36.296875 49.460938 36.328125 49.777344 36.328125 50.089844 Z M 36.328125 50.089844 " fill-opacity="1" fill-rule="nonzero"/></g><g clip-path="url(#fe1cdba3b4)"><path fill="#d9d9d9" d="M 36.328125 63.636719 C 36.328125 63.953125 36.296875 64.265625 36.234375 64.578125 C 36.171875 64.886719 36.082031 65.1875 35.960938 65.480469 C 35.839844 65.769531 35.691406 66.046875 35.515625 66.3125 C 35.339844 66.574219 35.140625 66.816406 34.917969 67.039062 C 34.695312 67.261719 34.453125 67.464844 34.1875 67.636719 C 33.925781 67.8125 33.648438 67.960938 33.355469 68.082031 C 33.066406 68.203125 32.765625 68.296875 32.453125 68.355469 C 32.144531 68.417969 31.832031 68.449219 31.515625 68.449219 C 31.199219 68.449219 30.886719 68.417969 30.578125 68.355469 C 30.265625 68.296875 29.964844 68.203125 29.671875 68.082031 C 29.382812 67.960938 29.105469 67.8125 28.839844 67.636719 C 28.578125 67.464844 28.335938 67.261719 28.113281 67.039062 C 27.890625 66.816406 27.6875 66.574219 27.515625 66.3125 C 27.339844 66.046875 27.191406 65.769531 27.070312 65.480469 C 26.949219 65.1875 26.855469 64.886719 26.796875 64.578125 C 26.734375 64.265625 26.703125 63.953125 26.703125 63.636719 C 26.703125 63.320312 26.734375 63.007812 26.796875 62.699219 C 26.855469 62.390625 26.949219 62.085938 27.070312 61.796875 C 27.191406 61.503906 27.339844 61.226562 27.515625 60.964844 C 27.6875 60.699219 27.890625 60.457031 28.113281 60.234375 C 28.335938 60.011719 28.578125 59.8125 28.839844 59.636719 C 29.105469 59.460938 29.382812 59.3125 29.671875 59.191406 C 29.964844 59.070312 30.265625 58.980469 30.578125 58.917969 C 30.886719 58.855469 31.199219 58.824219 31.515625 58.824219 C 31.832031 58.824219 32.144531 58.855469 32.453125 58.917969 C 32.765625 58.980469 33.066406 59.070312 33.355469 59.191406 C 33.648438 59.3125 33.925781 59.460938 34.1875 59.636719 C 34.453125 59.8125 34.695312 60.011719 34.917969 60.234375 C 35.140625 60.457031 35.339844 60.699219 35.515625 60.964844 C 35.691406 61.226562 35.839844 61.503906 35.960938 61.796875 C 36.082031 62.085938 36.171875 62.390625 36.234375 62.699219 C 36.296875 63.007812 36.328125 63.320312 36.328125 63.636719 Z M 36.328125 63.636719 " fill-opacity="1" fill-rule="nonzero"/></g><g clip-path="url(#250bef261f)"><path fill="#d9d9d9" d="M 49.875 9.453125 C 49.875 9.769531 49.84375 10.082031 49.78125 10.394531 C 49.71875 10.703125 49.628906 11.003906 49.507812 11.296875 C 49.386719 11.589844 49.238281 11.867188 49.0625 12.128906 C 48.886719 12.390625 48.6875 12.632812 48.464844 12.855469 C 48.242188 13.082031 47.996094 13.28125 47.734375 13.457031 C 47.472656 13.632812 47.195312 13.78125 46.902344 13.902344 C 46.609375 14.019531 46.308594 14.113281 46 14.175781 C 45.691406 14.234375 45.375 14.265625 45.0625 14.265625 C 44.746094 14.265625 44.433594 14.234375 44.121094 14.175781 C 43.8125 14.113281 43.511719 14.019531 43.21875 13.902344 C 42.925781 13.78125 42.648438 13.632812 42.386719 13.457031 C 42.125 13.28125 41.882812 13.082031 41.65625 12.855469 C 41.433594 12.632812 41.234375 12.390625 41.058594 12.128906 C 40.882812 11.867188 40.734375 11.589844 40.613281 11.296875 C 40.492188 11.003906 40.402344 10.703125 40.339844 10.394531 C 40.28125 10.082031 40.25 9.769531 40.25 9.453125 C 40.25 9.136719 40.28125 8.824219 40.339844 8.515625 C 40.402344 8.207031 40.492188 7.90625 40.613281 7.613281 C 40.734375 7.320312 40.882812 7.042969 41.058594 6.78125 C 41.234375 6.519531 41.433594 6.273438 41.65625 6.050781 C 41.882812 5.828125 42.125 5.628906 42.386719 5.453125 C 42.648438 5.277344 42.925781 5.128906 43.21875 5.007812 C 43.511719 4.886719 43.8125 4.796875 44.121094 4.734375 C 44.433594 4.671875 44.746094 4.640625 45.0625 4.640625 C 45.375 4.640625 45.691406 4.671875 46 4.734375 C 46.308594 4.796875 46.609375 4.886719 46.902344 5.007812 C 47.195312 5.128906 47.472656 5.277344 47.734375 5.453125 C 47.996094 5.628906 48.242188 5.828125 48.464844 6.050781 C 48.6875 6.273438 48.886719 6.519531 49.0625 6.78125 C 49.238281 7.042969 49.386719 7.320312 49.507812 7.613281 C 49.628906 7.90625 49.71875 8.207031 49.78125 8.515625 C 49.84375 8.824219 49.875 9.136719 49.875 9.453125 Z M 49.875 9.453125 " fill-opacity="1" fill-rule="nonzero"/></g><path fill="#d9d9d9" d="M 49.875 23 C 49.875 23.316406 49.84375 23.628906 49.78125 23.9375 C 49.71875 24.25 49.628906 24.550781 49.507812 24.84375 C 49.386719 25.132812 49.238281 25.410156 49.0625 25.675781 C 48.886719 25.9375 48.6875 26.179688 48.464844 26.402344 C 48.242188 26.625 47.996094 26.824219 47.734375 27 C 47.472656 27.175781 47.195312 27.324219 46.902344 27.445312 C 46.609375 27.566406 46.308594 27.660156 46 27.71875 C 45.691406 27.78125 45.375 27.8125 45.0625 27.8125 C 44.746094 27.8125 44.433594 27.78125 44.121094 27.71875 C 43.8125 27.660156 43.511719 27.566406 43.21875 27.445312 C 42.925781 27.324219 42.648438 27.175781 42.386719 27 C 42.125 26.824219 41.882812 26.625 41.65625 26.402344 C 41.433594 26.179688 41.234375 25.9375 41.058594 25.675781 C 40.882812 25.410156 40.734375 25.132812 40.613281 24.84375 C 40.492188 24.550781 40.402344 24.25 40.339844 23.9375 C 40.28125 23.628906 40.25 23.316406 40.25 23 C 40.25 22.683594 40.28125 22.371094 40.339844 22.0625 C 40.402344 21.75 40.492188 21.449219 40.613281 21.160156 C 40.734375 20.867188 40.882812 20.589844 41.058594 20.328125 C 41.234375 20.0625 41.433594 19.820312 41.65625 19.597656 C 41.882812 19.375 42.125 19.175781 42.386719 19 C 42.648438 18.824219 42.925781 18.675781 43.21875 18.554688 C 43.511719 18.433594 43.8125 18.34375 44.121094 18.28125 C 44.433594 18.21875 44.746094 18.1875 45.0625 18.1875 C 45.375 18.1875 45.691406 18.21875 46 18.28125 C 46.308594 18.34375 46.609375 18.433594 46.902344 18.554688 C 47.195312 18.675781 47.472656 18.824219 47.734375 19 C 47.996094 19.175781 48.242188 19.375 48.464844 19.597656 C 48.6875 19.820312 48.886719 20.0625 49.0625 20.328125 C 49.238281 20.589844 49.386719 20.867188 49.507812 21.160156 C 49.628906 21.449219 49.71875 21.75 49.78125 22.0625 C 49.84375 22.371094 49.875 22.683594 49.875 23 Z M 49.875 23 " fill-opacity="1" fill-rule="nonzero"/><path fill="#d9d9d9" d="M 49.875 36.546875 C 49.875 36.863281 49.84375 37.175781 49.78125 37.484375 C 49.71875 37.792969 49.628906 38.09375 49.507812 38.386719 C 49.386719 38.679688 49.238281 38.957031 49.0625 39.21875 C 48.886719 39.480469 48.6875 39.726562 48.464844 39.949219 C 48.242188 40.171875 47.996094 40.371094 47.734375 40.546875 C 47.472656 40.722656 47.195312 40.871094 46.902344 40.992188 C 46.609375 41.113281 46.308594 41.203125 46 41.265625 C 45.691406 41.328125 45.375 41.359375 45.0625 41.359375 C 44.746094 41.359375 44.433594 41.328125 44.121094 41.265625 C 43.8125 41.203125 43.511719 41.113281 43.21875 40.992188 C 42.925781 40.871094 42.648438 40.722656 42.386719 40.546875 C 42.125 40.371094 41.882812 40.171875 41.65625 39.949219 C 41.433594 39.726562 41.234375 39.480469 41.058594 39.21875 C 40.882812 38.957031 40.734375 38.679688 40.613281 38.386719 C 40.492188 38.09375 40.402344 37.792969 40.339844 37.484375 C 40.28125 37.175781 40.25 36.863281 40.25 36.546875 C 40.25 36.230469 40.28125 35.917969 40.339844 35.605469 C 40.402344 35.296875 40.492188 34.996094 40.613281 34.703125 C 40.734375 34.414062 40.882812 34.136719 41.058594 33.871094 C 41.234375 33.609375 41.433594 33.367188 41.65625 33.144531 C 41.882812 32.917969 42.125 32.71875 42.386719 32.542969 C 42.648438 32.371094 42.925781 32.222656 43.21875 32.101562 C 43.511719 31.980469 43.8125 31.886719 44.121094 31.828125 C 44.433594 31.765625 44.746094 31.734375 45.0625 31.734375 C 45.375 31.734375 45.691406 31.765625 46 31.828125 C 46.308594 31.886719 46.609375 31.980469 46.902344 32.101562 C 47.195312 32.222656 47.472656 32.371094 47.734375 32.542969 C 47.996094 32.71875 48.242188 32.917969 48.464844 33.144531 C 48.6875 33.367188 48.886719 33.609375 49.0625 33.871094 C 49.238281 34.136719 49.386719 34.414062 49.507812 34.703125 C 49.628906 34.996094 49.71875 35.296875 49.78125 35.605469 C 49.84375 35.917969 49.875 36.230469 49.875 36.546875 Z M 49.875 36.546875 " fill-opacity="1" fill-rule="nonzero"/><path fill="#d9d9d9" d="M 49.875 50.089844 C 49.875 50.40625 49.84375 50.71875 49.78125 51.03125 C 49.71875 51.339844 49.628906 51.640625 49.507812 51.933594 C 49.386719 52.226562 49.238281 52.503906 49.0625 52.765625 C 48.886719 53.027344 48.6875 53.269531 48.464844 53.496094 C 48.242188 53.71875 47.996094 53.917969 47.734375 54.09375 C 47.472656 54.269531 47.195312 54.417969 46.902344 54.539062 C 46.609375 54.660156 46.308594 54.75 46 54.8125 C 45.691406 54.875 45.375 54.902344 45.0625 54.902344 C 44.746094 54.902344 44.433594 54.875 44.121094 54.8125 C 43.8125 54.75 43.511719 54.660156 43.21875 54.539062 C 42.925781 54.417969 42.648438 54.269531 42.386719 54.09375 C 42.125 53.917969 41.882812 53.71875 41.65625 53.496094 C 41.433594 53.269531 41.234375 53.027344 41.058594 52.765625 C 40.882812 52.503906 40.734375 52.226562 40.613281 51.933594 C 40.492188 51.640625 40.402344 51.339844 40.339844 51.03125 C 40.28125 50.71875 40.25 50.40625 40.25 50.089844 C 40.25 49.777344 40.28125 49.460938 40.339844 49.152344 C 40.402344 48.84375 40.492188 48.542969 40.613281 48.25 C 40.734375 47.957031 40.882812 47.679688 41.058594 47.417969 C 41.234375 47.15625 41.433594 46.914062 41.65625 46.6875 C 41.882812 46.464844 42.125 46.265625 42.386719 46.089844 C 42.648438 45.914062 42.925781 45.765625 43.21875 45.644531 C 43.511719 45.523438 43.8125 45.433594 44.121094 45.371094 C 44.433594 45.308594 44.746094 45.28125 45.0625 45.28125 C 45.375 45.28125 45.691406 45.308594 46 45.371094 C 46.308594 45.433594 46.609375 45.523438 46.902344 45.644531 C 47.195312 45.765625 47.472656 45.914062 47.734375 46.089844 C 47.996094 46.265625 48.242188 46.464844 48.464844 46.6875 C 48.6875 46.914062 48.886719 47.15625 49.0625 47.417969 C 49.238281 47.679688 49.386719 47.957031 49.507812 48.25 C 49.628906 48.542969 49.71875 48.84375 49.78125 49.152344 C 49.84375 49.460938 49.875 49.777344 49.875 50.089844 Z M 49.875 50.089844 " fill-opacity="1" fill-rule="nonzero"/><g clip-path="url(#f8362014b6)"><path fill="#d9d9d9" d="M 49.875 63.636719 C 49.875 63.953125 49.84375 64.265625 49.78125 64.578125 C 49.71875 64.886719 49.628906 65.1875 49.507812 65.480469 C 49.386719 65.769531 49.238281 66.046875 49.0625 66.3125 C 48.886719 66.574219 48.6875 66.816406 48.464844 67.039062 C 48.242188 67.261719 47.996094 67.464844 47.734375 67.636719 C 47.472656 67.8125 47.195312 67.960938 46.902344 68.082031 C 46.609375 68.203125 46.308594 68.296875 46 68.355469 C 45.691406 68.417969 45.375 68.449219 45.0625 68.449219 C 44.746094 68.449219 44.433594 68.417969 44.121094 68.355469 C 43.8125 68.296875 43.511719 68.203125 43.21875 68.082031 C 42.925781 67.960938 42.648438 67.8125 42.386719 67.636719 C 42.125 67.464844 41.882812 67.261719 41.65625 67.039062 C 41.433594 66.816406 41.234375 66.574219 41.058594 66.3125 C 40.882812 66.046875 40.734375 65.769531 40.613281 65.480469 C 40.492188 65.1875 40.402344 64.886719 40.339844 64.578125 C 40.28125 64.265625 40.25 63.953125 40.25 63.636719 C 40.25 63.320312 40.28125 63.007812 40.339844 62.699219 C 40.402344 62.390625 40.492188 62.085938 40.613281 61.796875 C 40.734375 61.503906 40.882812 61.226562 41.058594 60.964844 C 41.234375 60.699219 41.433594 60.457031 41.65625 60.234375 C 41.882812 60.011719 42.125 59.8125 42.386719 59.636719 C 42.648438 59.460938 42.925781 59.3125 43.21875 59.191406 C 43.511719 59.070312 43.8125 58.980469 44.121094 58.917969 C 44.433594 58.855469 44.746094 58.824219 45.0625 58.824219 C 45.375 58.824219 45.691406 58.855469 46 58.917969 C 46.308594 58.980469 46.609375 59.070312 46.902344 59.191406 C 47.195312 59.3125 47.472656 59.460938 47.734375 59.636719 C 47.996094 59.8125 48.242188 60.011719 48.464844 60.234375 C 48.6875 60.457031 48.886719 60.699219 49.0625 60.964844 C 49.238281 61.226562 49.386719 61.503906 49.507812 61.796875 C 49.628906 62.085938 49.71875 62.390625 49.78125 62.699219 C 49.84375 63.007812 49.875 63.320312 49.875 63.636719 Z M 49.875 63.636719 " fill-opacity="1" fill-rule="nonzero"/></g><g clip-path="url(#0a2a2ec333)"><path fill="#d9d9d9" d="M 63.40625 9.453125 C 63.40625 9.769531 63.378906 10.082031 63.316406 10.394531 C 63.253906 10.703125 63.164062 11.003906 63.042969 11.296875 C 62.921875 11.589844 62.773438 11.867188 62.597656 12.128906 C 62.421875 12.390625 62.222656 12.632812 62 12.855469 C 61.773438 13.082031 61.53125 13.28125 61.269531 13.457031 C 61.007812 13.632812 60.730469 13.78125 60.4375 13.902344 C 60.144531 14.019531 59.84375 14.113281 59.535156 14.175781 C 59.226562 14.234375 58.910156 14.265625 58.597656 14.265625 C 58.28125 14.265625 57.96875 14.234375 57.65625 14.175781 C 57.347656 14.113281 57.046875 14.019531 56.753906 13.902344 C 56.460938 13.78125 56.183594 13.632812 55.921875 13.457031 C 55.660156 13.28125 55.417969 13.082031 55.191406 12.855469 C 54.96875 12.632812 54.769531 12.390625 54.59375 12.128906 C 54.417969 11.867188 54.269531 11.589844 54.148438 11.296875 C 54.027344 11.003906 53.9375 10.703125 53.875 10.394531 C 53.816406 10.082031 53.785156 9.769531 53.785156 9.453125 C 53.785156 9.136719 53.816406 8.824219 53.875 8.515625 C 53.9375 8.207031 54.027344 7.90625 54.148438 7.613281 C 54.269531 7.320312 54.417969 7.042969 54.59375 6.78125 C 54.769531 6.519531 54.96875 6.273438 55.191406 6.050781 C 55.417969 5.828125 55.660156 5.628906 55.921875 5.453125 C 56.183594 5.277344 56.460938 5.128906 56.753906 5.007812 C 57.046875 4.886719 57.347656 4.796875 57.65625 4.734375 C 57.96875 4.671875 58.28125 4.640625 58.597656 4.640625 C 58.910156 4.640625 59.226562 4.671875 59.535156 4.734375 C 59.84375 4.796875 60.144531 4.886719 60.4375 5.007812 C 60.730469 5.128906 61.007812 5.277344 61.269531 5.453125 C 61.53125 5.628906 61.773438 5.828125 62 6.050781 C 62.222656 6.273438 62.421875 6.519531 62.597656 6.78125 C 62.773438 7.042969 62.921875 7.320312 63.042969 7.613281 C 63.164062 7.90625 63.253906 8.207031 63.316406 8.515625 C 63.378906 8.824219 63.40625 9.136719 63.40625 9.453125 Z M 63.40625 9.453125 " fill-opacity="1" fill-rule="nonzero"/></g><path fill="#d9d9d9" d="M 63.40625 23 C 63.40625 23.316406 63.378906 23.628906 63.316406 23.9375 C 63.253906 24.25 63.164062 24.550781 63.042969 24.84375 C 62.921875 25.132812 62.773438 25.410156 62.597656 25.675781 C 62.421875 25.9375 62.222656 26.179688 62 26.402344 C 61.773438 26.625 61.53125 26.824219 61.269531 27 C 61.007812 27.175781 60.730469 27.324219 60.4375 27.445312 C 60.144531 27.566406 59.84375 27.660156 59.535156 27.71875 C 59.226562 27.78125 58.910156 27.8125 58.597656 27.8125 C 58.28125 27.8125 57.96875 27.78125 57.65625 27.71875 C 57.347656 27.660156 57.046875 27.566406 56.753906 27.445312 C 56.460938 27.324219 56.183594 27.175781 55.921875 27 C 55.660156 26.824219 55.417969 26.625 55.191406 26.402344 C 54.96875 26.179688 54.769531 25.9375 54.59375 25.675781 C 54.417969 25.410156 54.269531 25.132812 54.148438 24.84375 C 54.027344 24.550781 53.9375 24.25 53.875 23.9375 C 53.816406 23.628906 53.785156 23.316406 53.785156 23 C 53.785156 22.683594 53.816406 22.371094 53.875 22.0625 C 53.9375 21.75 54.027344 21.449219 54.148438 21.160156 C 54.269531 20.867188 54.417969 20.589844 54.59375 20.328125 C 54.769531 20.0625 54.96875 19.820312 55.191406 19.597656 C 55.417969 19.375 55.660156 19.175781 55.921875 19 C 56.183594 18.824219 56.460938 18.675781 56.753906 18.554688 C 57.046875 18.433594 57.347656 18.34375 57.65625 18.28125 C 57.96875 18.21875 58.28125 18.1875 58.597656 18.1875 C 58.910156 18.1875 59.226562 18.21875 59.535156 18.28125 C 59.84375 18.34375 60.144531 18.433594 60.4375 18.554688 C 60.730469 18.675781 61.007812 18.824219 61.269531 19 C 61.53125 19.175781 61.773438 19.375 62 19.597656 C 62.222656 19.820312 62.421875 20.0625 62.597656 20.328125 C 62.773438 20.589844 62.921875 20.867188 63.042969 21.160156 C 63.164062 21.449219 63.253906 21.75 63.316406 22.0625 C 63.378906 22.371094 63.40625 22.683594 63.40625 23 Z M 63.40625 23 " fill-opacity="1" fill-rule="nonzero"/><path fill="#d9d9d9" d="M 63.40625 36.546875 C 63.40625 36.863281 63.378906 37.175781 63.316406 37.484375 C 63.253906 37.792969 63.164062 38.09375 63.042969 38.386719 C 62.921875 38.679688 62.773438 38.957031 62.597656 39.21875 C 62.421875 39.480469 62.222656 39.726562 62 39.949219 C 61.773438 40.171875 61.53125 40.371094 61.269531 40.546875 C 61.007812 40.722656 60.730469 40.871094 60.4375 40.992188 C 60.144531 41.113281 59.84375 41.203125 59.535156 41.265625 C 59.226562 41.328125 58.910156 41.359375 58.597656 41.359375 C 58.28125 41.359375 57.96875 41.328125 57.65625 41.265625 C 57.347656 41.203125 57.046875 41.113281 56.753906 40.992188 C 56.460938 40.871094 56.183594 40.722656 55.921875 40.546875 C 55.660156 40.371094 55.417969 40.171875 55.191406 39.949219 C 54.96875 39.726562 54.769531 39.480469 54.59375 39.21875 C 54.417969 38.957031 54.269531 38.679688 54.148438 38.386719 C 54.027344 38.09375 53.9375 37.792969 53.875 37.484375 C 53.816406 37.175781 53.785156 36.863281 53.785156 36.546875 C 53.785156 36.230469 53.816406 35.917969 53.875 35.605469 C 53.9375 35.296875 54.027344 34.996094 54.148438 34.703125 C 54.269531 34.414062 54.417969 34.136719 54.59375 33.871094 C 54.769531 33.609375 54.96875 33.367188 55.191406 33.144531 C 55.417969 32.917969 55.660156 32.71875 55.921875 32.542969 C 56.183594 32.371094 56.460938 32.222656 56.753906 32.101562 C 57.046875 31.980469 57.347656 31.886719 57.65625 31.828125 C 57.96875 31.765625 58.28125 31.734375 58.597656 31.734375 C 58.910156 31.734375 59.226562 31.765625 59.535156 31.828125 C 59.84375 31.886719 60.144531 31.980469 60.4375 32.101562 C 60.730469 32.222656 61.007812 32.371094 61.269531 32.542969 C 61.53125 32.71875 61.773438 32.917969 62 33.144531 C 62.222656 33.367188 62.421875 33.609375 62.597656 33.871094 C 62.773438 34.136719 62.921875 34.414062 63.042969 34.703125 C 63.164062 34.996094 63.253906 35.296875 63.316406 35.605469 C 63.378906 35.917969 63.40625 36.230469 63.40625 36.546875 Z M 63.40625 36.546875 " fill-opacity="1" fill-rule="nonzero"/><path fill="#d9d9d9" d="M 63.40625 50.089844 C 63.40625 50.40625 63.378906 50.71875 63.316406 51.03125 C 63.253906 51.339844 63.164062 51.640625 63.042969 51.933594 C 62.921875 52.226562 62.773438 52.503906 62.597656 52.765625 C 62.421875 53.027344 62.222656 53.269531 62 53.496094 C 61.773438 53.71875 61.53125 53.917969 61.269531 54.09375 C 61.007812 54.269531 60.730469 54.417969 60.4375 54.539062 C 60.144531 54.660156 59.84375 54.75 59.535156 54.8125 C 59.226562 54.875 58.910156 54.902344 58.597656 54.902344 C 58.28125 54.902344 57.96875 54.875 57.65625 54.8125 C 57.347656 54.75 57.046875 54.660156 56.753906 54.539062 C 56.460938 54.417969 56.183594 54.269531 55.921875 54.09375 C 55.660156 53.917969 55.417969 53.71875 55.191406 53.496094 C 54.96875 53.269531 54.769531 53.027344 54.59375 52.765625 C 54.417969 52.503906 54.269531 52.226562 54.148438 51.933594 C 54.027344 51.640625 53.9375 51.339844 53.875 51.03125 C 53.816406 50.71875 53.785156 50.40625 53.785156 50.089844 C 53.785156 49.777344 53.816406 49.460938 53.875 49.152344 C 53.9375 48.84375 54.027344 48.542969 54.148438 48.25 C 54.269531 47.957031 54.417969 47.679688 54.59375 47.417969 C 54.769531 47.15625 54.96875 46.914062 55.191406 46.6875 C 55.417969 46.464844 55.660156 46.265625 55.921875 46.089844 C 56.183594 45.914062 56.460938 45.765625 56.753906 45.644531 C 57.046875 45.523438 57.347656 45.433594 57.65625 45.371094 C 57.96875 45.308594 58.28125 45.28125 58.597656 45.28125 C 58.910156 45.28125 59.226562 45.308594 59.535156 45.371094 C 59.84375 45.433594 60.144531 45.523438 60.4375 45.644531 C 60.730469 45.765625 61.007812 45.914062 61.269531 46.089844 C 61.53125 46.265625 61.773438 46.464844 62 46.6875 C 62.222656 46.914062 62.421875 47.15625 62.597656 47.417969 C 62.773438 47.679688 62.921875 47.957031 63.042969 48.25 C 63.164062 48.542969 63.253906 48.84375 63.316406 49.152344 C 63.378906 49.460938 63.40625 49.777344 63.40625 50.089844 Z M 63.40625 50.089844 " fill-opacity="1" fill-rule="nonzero"/><g clip-path="url(#42409b3d9c)"><path fill="#d9d9d9" d="M 63.40625 63.636719 C 63.40625 63.953125 63.378906 64.265625 63.316406 64.578125 C 63.253906 64.886719 63.164062 65.1875 63.042969 65.480469 C 62.921875 65.769531 62.773438 66.046875 62.597656 66.3125 C 62.421875 66.574219 62.222656 66.816406 62 67.039062 C 61.773438 67.261719 61.53125 67.464844 61.269531 67.636719 C 61.007812 67.8125 60.730469 67.960938 60.4375 68.082031 C 60.144531 68.203125 59.84375 68.296875 59.535156 68.355469 C 59.226562 68.417969 58.910156 68.449219 58.597656 68.449219 C 58.28125 68.449219 57.96875 68.417969 57.65625 68.355469 C 57.347656 68.296875 57.046875 68.203125 56.753906 68.082031 C 56.460938 67.960938 56.183594 67.8125 55.921875 67.636719 C 55.660156 67.464844 55.417969 67.261719 55.191406 67.039062 C 54.96875 66.816406 54.769531 66.574219 54.59375 66.3125 C 54.417969 66.046875 54.269531 65.769531 54.148438 65.480469 C 54.027344 65.1875 53.9375 64.886719 53.875 64.578125 C 53.816406 64.265625 53.785156 63.953125 53.785156 63.636719 C 53.785156 63.320312 53.816406 63.007812 53.875 62.699219 C 53.9375 62.390625 54.027344 62.085938 54.148438 61.796875 C 54.269531 61.503906 54.417969 61.226562 54.59375 60.964844 C 54.769531 60.699219 54.96875 60.457031 55.191406 60.234375 C 55.417969 60.011719 55.660156 59.8125 55.921875 59.636719 C 56.183594 59.460938 56.460938 59.3125 56.753906 59.191406 C 57.046875 59.070312 57.347656 58.980469 57.65625 58.917969 C 57.96875 58.855469 58.28125 58.824219 58.597656 58.824219 C 58.910156 58.824219 59.226562 58.855469 59.535156 58.917969 C 59.84375 58.980469 60.144531 59.070312 60.4375 59.191406 C 60.730469 59.3125 61.007812 59.460938 61.269531 59.636719 C 61.53125 59.8125 61.773438 60.011719 62 60.234375 C 62.222656 60.457031 62.421875 60.699219 62.597656 60.964844 C 62.773438 61.226562 62.921875 61.503906 63.042969 61.796875 C 63.164062 62.085938 63.253906 62.390625 63.316406 62.699219 C 63.378906 63.007812 63.40625 63.320312 63.40625 63.636719 Z M 63.40625 63.636719 " fill-opacity="1" fill-rule="nonzero"/></g><g clip-path="url(#b1c6afc10f)"><path fill="#d9d9d9" d="M 76.964844 9.453125 C 76.964844 9.769531 76.933594 10.082031 76.871094 10.394531 C 76.808594 10.703125 76.71875 11.003906 76.597656 11.296875 C 76.476562 11.589844 76.328125 11.867188 76.152344 12.128906 C 75.976562 12.390625 75.777344 12.632812 75.554688 12.855469 C 75.332031 13.082031 75.089844 13.28125 74.824219 13.457031 C 74.5625 13.632812 74.285156 13.78125 73.992188 13.902344 C 73.703125 14.019531 73.402344 14.113281 73.089844 14.175781 C 72.78125 14.234375 72.46875 14.265625 72.152344 14.265625 C 71.835938 14.265625 71.523438 14.234375 71.214844 14.175781 C 70.902344 14.113281 70.601562 14.019531 70.3125 13.902344 C 70.019531 13.78125 69.742188 13.632812 69.480469 13.457031 C 69.214844 13.28125 68.972656 13.082031 68.75 12.855469 C 68.527344 12.632812 68.328125 12.390625 68.152344 12.128906 C 67.976562 11.867188 67.828125 11.589844 67.707031 11.296875 C 67.585938 11.003906 67.496094 10.703125 67.433594 10.394531 C 67.371094 10.082031 67.339844 9.769531 67.339844 9.453125 C 67.339844 9.136719 67.371094 8.824219 67.433594 8.515625 C 67.496094 8.207031 67.585938 7.90625 67.707031 7.613281 C 67.828125 7.320312 67.976562 7.042969 68.152344 6.78125 C 68.328125 6.519531 68.527344 6.273438 68.75 6.050781 C 68.972656 5.828125 69.214844 5.628906 69.480469 5.453125 C 69.742188 5.277344 70.019531 5.128906 70.3125 5.007812 C 70.601562 4.886719 70.902344 4.796875 71.214844 4.734375 C 71.523438 4.671875 71.835938 4.640625 72.152344 4.640625 C 72.46875 4.640625 72.78125 4.671875 73.089844 4.734375 C 73.402344 4.796875 73.703125 4.886719 73.992188 5.007812 C 74.285156 5.128906 74.5625 5.277344 74.824219 5.453125 C 75.089844 5.628906 75.332031 5.828125 75.554688 6.050781 C 75.777344 6.273438 75.976562 6.519531 76.152344 6.78125 C 76.328125 7.042969 76.476562 7.320312 76.597656 7.613281 C 76.71875 7.90625 76.808594 8.207031 76.871094 8.515625 C 76.933594 8.824219 76.964844 9.136719 76.964844 9.453125 Z M 76.964844 9.453125 " fill-opacity="1" fill-rule="nonzero"/></g><path fill="#d9d9d9" d="M 76.964844 23 C 76.964844 23.316406 76.933594 23.628906 76.871094 23.9375 C 76.808594 24.25 76.71875 24.550781 76.597656 24.84375 C 76.476562 25.132812 76.328125 25.410156 76.152344 25.675781 C 75.976562 25.9375 75.777344 26.179688 75.554688 26.402344 C 75.332031 26.625 75.089844 26.824219 74.824219 27 C 74.5625 27.175781 74.285156 27.324219 73.992188 27.445312 C 73.703125 27.566406 73.402344 27.660156 73.089844 27.71875 C 72.78125 27.78125 72.46875 27.8125 72.152344 27.8125 C 71.835938 27.8125 71.523438 27.78125 71.214844 27.71875 C 70.902344 27.660156 70.601562 27.566406 70.3125 27.445312 C 70.019531 27.324219 69.742188 27.175781 69.480469 27 C 69.214844 26.824219 68.972656 26.625 68.75 26.402344 C 68.527344 26.179688 68.328125 25.9375 68.152344 25.675781 C 67.976562 25.410156 67.828125 25.132812 67.707031 24.84375 C 67.585938 24.550781 67.496094 24.25 67.433594 23.9375 C 67.371094 23.628906 67.339844 23.316406 67.339844 23 C 67.339844 22.683594 67.371094 22.371094 67.433594 22.0625 C 67.496094 21.75 67.585938 21.449219 67.707031 21.160156 C 67.828125 20.867188 67.976562 20.589844 68.152344 20.328125 C 68.328125 20.0625 68.527344 19.820312 68.75 19.597656 C 68.972656 19.375 69.214844 19.175781 69.480469 19 C 69.742188 18.824219 70.019531 18.675781 70.3125 18.554688 C 70.601562 18.433594 70.902344 18.34375 71.214844 18.28125 C 71.523438 18.21875 71.835938 18.1875 72.152344 18.1875 C 72.46875 18.1875 72.78125 18.21875 73.089844 18.28125 C 73.402344 18.34375 73.703125 18.433594 73.992188 18.554688 C 74.285156 18.675781 74.5625 18.824219 74.824219 19 C 75.089844 19.175781 75.332031 19.375 75.554688 19.597656 C 75.777344 19.820312 75.976562 20.0625 76.152344 20.328125 C 76.328125 20.589844 76.476562 20.867188 76.597656 21.160156 C 76.71875 21.449219 76.808594 21.75 76.871094 22.0625 C 76.933594 22.371094 76.964844 22.683594 76.964844 23 Z M 76.964844 23 " fill-opacity="1" fill-rule="nonzero"/><path fill="#d9d9d9" d="M 76.964844 36.546875 C 76.964844 36.863281 76.933594 37.175781 76.871094 37.484375 C 76.808594 37.792969 76.71875 38.09375 76.597656 38.386719 C 76.476562 38.679688 76.328125 38.957031 76.152344 39.21875 C 75.976562 39.480469 75.777344 39.726562 75.554688 39.949219 C 75.332031 40.171875 75.089844 40.371094 74.824219 40.546875 C 74.5625 40.722656 74.285156 40.871094 73.992188 40.992188 C 73.703125 41.113281 73.402344 41.203125 73.089844 41.265625 C 72.78125 41.328125 72.46875 41.359375 72.152344 41.359375 C 71.835938 41.359375 71.523438 41.328125 71.214844 41.265625 C 70.902344 41.203125 70.601562 41.113281 70.3125 40.992188 C 70.019531 40.871094 69.742188 40.722656 69.480469 40.546875 C 69.214844 40.371094 68.972656 40.171875 68.75 39.949219 C 68.527344 39.726562 68.328125 39.480469 68.152344 39.21875 C 67.976562 38.957031 67.828125 38.679688 67.707031 38.386719 C 67.585938 38.09375 67.496094 37.792969 67.433594 37.484375 C 67.371094 37.175781 67.339844 36.863281 67.339844 36.546875 C 67.339844 36.230469 67.371094 35.917969 67.433594 35.605469 C 67.496094 35.296875 67.585938 34.996094 67.707031 34.703125 C 67.828125 34.414062 67.976562 34.136719 68.152344 33.871094 C 68.328125 33.609375 68.527344 33.367188 68.75 33.144531 C 68.972656 32.917969 69.214844 32.71875 69.480469 32.542969 C 69.742188 32.371094 70.019531 32.222656 70.3125 32.101562 C 70.601562 31.980469 70.902344 31.886719 71.214844 31.828125 C 71.523438 31.765625 71.835938 31.734375 72.152344 31.734375 C 72.46875 31.734375 72.78125 31.765625 73.089844 31.828125 C 73.402344 31.886719 73.703125 31.980469 73.992188 32.101562 C 74.285156 32.222656 74.5625 32.371094 74.824219 32.542969 C 75.089844 32.71875 75.332031 32.917969 75.554688 33.144531 C 75.777344 33.367188 75.976562 33.609375 76.152344 33.871094 C 76.328125 34.136719 76.476562 34.414062 76.597656 34.703125 C 76.71875 34.996094 76.808594 35.296875 76.871094 35.605469 C 76.933594 35.917969 76.964844 36.230469 76.964844 36.546875 Z M 76.964844 36.546875 " fill-opacity="1" fill-rule="nonzero"/><path fill="#d9d9d9" d="M 76.964844 50.089844 C 76.964844 50.40625 76.933594 50.71875 76.871094 51.03125 C 76.808594 51.339844 76.71875 51.640625 76.597656 51.933594 C 76.476562 52.226562 76.328125 52.503906 76.152344 52.765625 C 75.976562 53.027344 75.777344 53.269531 75.554688 53.496094 C 75.332031 53.71875 75.089844 53.917969 74.824219 54.09375 C 74.5625 54.269531 74.285156 54.417969 73.992188 54.539062 C 73.703125 54.660156 73.402344 54.75 73.089844 54.8125 C 72.78125 54.875 72.46875 54.902344 72.152344 54.902344 C 71.835938 54.902344 71.523438 54.875 71.214844 54.8125 C 70.902344 54.75 70.601562 54.660156 70.3125 54.539062 C 70.019531 54.417969 69.742188 54.269531 69.480469 54.09375 C 69.214844 53.917969 68.972656 53.71875 68.75 53.496094 C 68.527344 53.269531 68.328125 53.027344 68.152344 52.765625 C 67.976562 52.503906 67.828125 52.226562 67.707031 51.933594 C 67.585938 51.640625 67.496094 51.339844 67.433594 51.03125 C 67.371094 50.71875 67.339844 50.40625 67.339844 50.089844 C 67.339844 49.777344 67.371094 49.460938 67.433594 49.152344 C 67.496094 48.84375 67.585938 48.542969 67.707031 48.25 C 67.828125 47.957031 67.976562 47.679688 68.152344 47.417969 C 68.328125 47.15625 68.527344 46.914062 68.75 46.6875 C 68.972656 46.464844 69.214844 46.265625 69.480469 46.089844 C 69.742188 45.914062 70.019531 45.765625 70.3125 45.644531 C 70.601562 45.523438 70.902344 45.433594 71.214844 45.371094 C 71.523438 45.308594 71.835938 45.28125 72.152344 45.28125 C 72.46875 45.28125 72.78125 45.308594 73.089844 45.371094 C 73.402344 45.433594 73.703125 45.523438 73.992188 45.644531 C 74.285156 45.765625 74.5625 45.914062 74.824219 46.089844 C 75.089844 46.265625 75.332031 46.464844 75.554688 46.6875 C 75.777344 46.914062 75.976562 47.15625 76.152344 47.417969 C 76.328125 47.679688 76.476562 47.957031 76.597656 48.25 C 76.71875 48.542969 76.808594 48.84375 76.871094 49.152344 C 76.933594 49.460938 76.964844 49.777344 76.964844 50.089844 Z M 76.964844 50.089844 " fill-opacity="1" fill-rule="nonzero"/><g clip-path="url(#7ad87f3c6a)"><path fill="#d9d9d9" d="M 76.964844 63.636719 C 76.964844 63.953125 76.933594 64.265625 76.871094 64.578125 C 76.808594 64.886719 76.71875 65.1875 76.597656 65.480469 C 76.476562 65.769531 76.328125 66.046875 76.152344 66.3125 C 75.976562 66.574219 75.777344 66.816406 75.554688 67.039062 C 75.332031 67.261719 75.089844 67.464844 74.824219 67.636719 C 74.5625 67.8125 74.285156 67.960938 73.992188 68.082031 C 73.703125 68.203125 73.402344 68.296875 73.089844 68.355469 C 72.78125 68.417969 72.46875 68.449219 72.152344 68.449219 C 71.835938 68.449219 71.523438 68.417969 71.214844 68.355469 C 70.902344 68.296875 70.601562 68.203125 70.3125 68.082031 C 70.019531 67.960938 69.742188 67.8125 69.480469 67.636719 C 69.214844 67.464844 68.972656 67.261719 68.75 67.039062 C 68.527344 66.816406 68.328125 66.574219 68.152344 66.3125 C 67.976562 66.046875 67.828125 65.769531 67.707031 65.480469 C 67.585938 65.1875 67.496094 64.886719 67.433594 64.578125 C 67.371094 64.265625 67.339844 63.953125 67.339844 63.636719 C 67.339844 63.320312 67.371094 63.007812 67.433594 62.699219 C 67.496094 62.390625 67.585938 62.085938 67.707031 61.796875 C 67.828125 61.503906 67.976562 61.226562 68.152344 60.964844 C 68.328125 60.699219 68.527344 60.457031 68.75 60.234375 C 68.972656 60.011719 69.214844 59.8125 69.480469 59.636719 C 69.742188 59.460938 70.019531 59.3125 70.3125 59.191406 C 70.601562 59.070312 70.902344 58.980469 71.214844 58.917969 C 71.523438 58.855469 71.835938 58.824219 72.152344 58.824219 C 72.46875 58.824219 72.78125 58.855469 73.089844 58.917969 C 73.402344 58.980469 73.703125 59.070312 73.992188 59.191406 C 74.285156 59.3125 74.5625 59.460938 74.824219 59.636719 C 75.089844 59.8125 75.332031 60.011719 75.554688 60.234375 C 75.777344 60.457031 75.976562 60.699219 76.152344 60.964844 C 76.328125 61.226562 76.476562 61.503906 76.597656 61.796875 C 76.71875 62.085938 76.808594 62.390625 76.871094 62.699219 C 76.933594 63.007812 76.964844 63.320312 76.964844 63.636719 Z M 76.964844 63.636719 " fill-opacity="1" fill-rule="nonzero"/></g><g clip-path="url(#e8c892b9db)"><path fill="#ffffff" d="M 52.871094 -1.425781 L 100.738281 -1.425781 L 100.738281 78.414062 L 52.871094 78.414062 Z M 52.871094 -1.425781 " fill-opacity="1" fill-rule="nonzero"/></g><g clip-path="url(#e0156c0bdb)"><path fill="#ffffff" d="M 37.871094 -38.125 L 85.742188 -38.125 L 85.742188 41.714844 L 37.871094 41.714844 Z M 37.871094 -38.125 " fill-opacity="1" fill-rule="nonzero"/></g></svg>