<svg xmlns="http://www.w3.org/2000/svg" xmlns:xlink="http://www.w3.org/1999/xlink" width="600" zoomAndPan="magnify" viewBox="0 0 450 142.499996" height="190" preserveAspectRatio="xMidYMid meet" version="1.0"><defs><clipPath id="61b533e1fa"><path d="M 3 50 L 448 50 L 448 91.835938 L 3 91.835938 Z M 3 50 " clip-rule="nonzero"/></clipPath></defs><g clip-path="url(#61b533e1fa)"><path fill="#0c80a1" d="M 444.824219 71.59375 C 417.21875 65.179688 389.246094 60.332031 361.101562 57 C 332.417969 53.601562 303.582031 51.703125 274.710938 50.832031 C 246.460938 49.976562 218.1875 50.191406 189.941406 51.121094 C 161.269531 52.070312 132.617188 53.742188 104.003906 55.785156 C 75.609375 57.816406 47.234375 60.191406 18.910156 63.007812 C 14.75 63.421875 10.585938 63.816406 6.425781 64.214844 C 2.472656 64.597656 3.316406 70.621094 7.25 70.308594 C 36.042969 68.03125 64.839844 65.753906 93.652344 63.640625 C 122.011719 61.558594 150.394531 59.820312 178.816406 58.78125 C 207.042969 57.746094 235.300781 57.367188 263.542969 57.972656 C 292.035156 58.582031 320.511719 60.277344 348.851562 63.304688 C 362.230469 64.734375 375.582031 66.46875 388.878906 68.527344 C 361.996094 67.25 335.101562 66.207031 308.191406 65.699219 C 263.195312 64.847656 218.097656 65.527344 173.234375 69.289062 C 147.941406 71.410156 122.722656 74.550781 97.695312 78.824219 C 93.886719 79.476562 94.910156 85.894531 98.757812 85.566406 C 136.980469 82.347656 175.34375 80.746094 213.703125 80.714844 C 251.839844 80.683594 289.957031 82.199219 327.972656 85.230469 C 338.695312 86.085938 349.410156 87.03125 360.109375 88.117188 C 365.316406 88.644531 370.519531 89.175781 375.71875 89.75 C 381.558594 90.390625 387.449219 90.769531 393.277344 91.5 C 397.726562 92.058594 399.066406 85.195312 394.601562 84.636719 C 389.351562 83.976562 384.148438 83.03125 378.890625 82.414062 C 374.121094 81.851562 369.351562 81.320312 364.578125 80.808594 C 355.015625 79.789062 345.433594 78.90625 335.851562 78.101562 C 317.003906 76.523438 298.109375 75.386719 279.210938 74.625 C 259.835938 73.847656 240.453125 73.457031 221.074219 73.457031 C 225.371094 73.292969 229.671875 73.152344 233.972656 73.035156 C 278.582031 71.804688 323.246094 73.054688 367.8125 75.027344 C 392.953125 76.144531 418.074219 77.609375 443.199219 78.988281 C 445.089844 79.09375 446.847656 77.886719 447.234375 76 C 447.578125 74.3125 446.699219 72.027344 444.824219 71.59375 " fill-opacity="1" fill-rule="nonzero"/></g></svg>