<svg xmlns="http://www.w3.org/2000/svg" xmlns:xlink="http://www.w3.org/1999/xlink" width="600" zoomAndPan="magnify" viewBox="0 0 450 142.499996" height="190" preserveAspectRatio="xMidYMid meet" version="1.0"><defs><clipPath id="c8a7e85465"><path d="M 1 59 L 447 59 L 447 83.800781 L 1 83.800781 Z M 1 59 " clip-rule="nonzero"/></clipPath></defs><g clip-path="url(#c8a7e85465)"><path fill="#058693" d="M 442.027344 60.121094 C 384.972656 58.648438 327.855469 58.679688 270.804688 60.324219 C 213.480469 61.984375 156.222656 65.15625 99.070312 69.886719 C 83.214844 71.199219 67.402344 72.890625 51.59375 74.695312 C 43.738281 75.597656 35.90625 76.707031 28.070312 77.773438 C 19.398438 78.953125 10.730469 80.015625 2.183594 81.902344 C 1.628906 82.027344 0.777344 83.199219 1.796875 83.210938 C 16.238281 83.347656 30.808594 81.640625 45.222656 80.726562 C 59.804688 79.804688 74.398438 78.703125 88.960938 77.550781 C 117.820312 75.269531 146.722656 73.429688 175.636719 71.960938 C 232.925781 69.054688 290.289062 67.765625 347.652344 67.984375 C 379.917969 68.109375 412.171875 68.835938 444.417969 69.992188 C 449.1875 70.164062 446.34375 60.230469 442.027344 60.121094 " fill-opacity="1" fill-rule="nonzero"/></g></svg>