<svg xmlns="http://www.w3.org/2000/svg" xmlns:xlink="http://www.w3.org/1999/xlink" width="600" zoomAndPan="magnify" viewBox="0 0 450 142.499996" height="190" preserveAspectRatio="xMidYMid meet" version="1.0"><defs><clipPath id="7fc57f232f"><path d="M 7 54.285156 L 443 54.285156 L 443 87.917969 L 7 87.917969 Z M 7 54.285156 " clip-rule="nonzero"/></clipPath></defs><path fill="#058693" d="M 192.085938 83.785156 C 192.085938 83.785156 192.085938 83.910156 191.832031 83.910156 C 192.210938 83.785156 192.464844 83.785156 192.085938 83.785156 Z M 192.085938 83.785156 " fill-opacity="1" fill-rule="nonzero"/><path fill="#058693" d="M 191.832031 84.039062 C 191.703125 84.039062 191.578125 84.164062 191.453125 84.164062 C 191.703125 84.039062 191.832031 84.039062 191.832031 84.039062 Z M 191.832031 84.039062 " fill-opacity="1" fill-rule="nonzero"/><path fill="#058693" d="M 191.832031 84.671875 C 191.832031 84.671875 191.703125 84.671875 191.578125 84.796875 C 191.703125 84.796875 191.703125 84.796875 191.832031 84.671875 Z M 191.832031 84.671875 " fill-opacity="1" fill-rule="nonzero"/><g clip-path="url(#7fc57f232f)"><path fill="#058693" d="M 442.242188 54.539062 C 439.835938 54.285156 439.710938 54.792969 437.683594 54.539062 L 437.8125 54.667969 C 428.441406 55.300781 419.074219 56.1875 409.578125 57.199219 C 403.375 58.339844 396.539062 58.972656 389.957031 59.984375 C 382.992188 60.996094 375.398438 62.261719 369.320312 63.402344 C 367.929688 63.65625 366.789062 63.527344 365.523438 63.527344 C 362.738281 64.035156 359.445312 64.414062 356.027344 64.792969 C 353.496094 64.921875 344.886719 65.933594 344.253906 65.679688 C 343.496094 65.679688 342.609375 65.808594 342.734375 65.933594 C 341.46875 65.933594 343.117188 65.554688 342.230469 65.425781 C 342.230469 65.425781 342.355469 65.554688 341.976562 65.554688 L 341.089844 65.300781 C 339.066406 65.679688 336.152344 65.300781 334 65.808594 C 334.632812 65.554688 335.265625 65.175781 336.660156 65.046875 L 336.914062 65.175781 C 337.164062 65.175781 338.179688 65.046875 338.179688 64.792969 C 336.914062 64.667969 335.773438 64.792969 334.378906 64.921875 C 334.128906 64.921875 333.875 64.792969 333.621094 64.792969 L 333.621094 64.921875 C 333.113281 64.792969 333.242188 64.792969 333.367188 64.667969 L 333.496094 64.667969 C 332.609375 64.160156 328.429688 65.175781 326.023438 64.921875 C 325.390625 65.046875 325.898438 65.046875 325.140625 65.175781 C 322.734375 65.046875 321.085938 64.921875 318.554688 64.792969 C 317.796875 65.046875 317.667969 65.175781 318.683594 65.300781 L 316.785156 65.300781 C 318.554688 64.667969 313.238281 64.792969 315.136719 64.160156 C 314.632812 64.035156 313.492188 64.035156 312.351562 64.160156 C 312.226562 64.289062 312.097656 64.542969 310.707031 64.542969 C 308.808594 64.414062 309.3125 64.414062 307.667969 64.289062 C 307.289062 64.035156 307.921875 64.035156 307.796875 63.910156 C 305.390625 64.160156 305.644531 63.527344 303.492188 63.65625 C 302.097656 63.78125 299.3125 63.78125 299.1875 64.160156 C 297.289062 64.160156 297.289062 63.910156 297.414062 63.65625 L 295.894531 63.65625 C 300.957031 63.527344 306.148438 63.527344 311.339844 63.527344 C 300.199219 62.515625 286.78125 61.882812 278.171875 64.542969 C 277.160156 63.273438 266.269531 62.769531 266.019531 63.148438 L 259.179688 63.910156 C 244.496094 65.175781 228.417969 65.046875 211.960938 64.667969 C 202.71875 64.542969 177.777344 64.542969 168.410156 64.289062 C 167.019531 64.289062 165.625 64.160156 164.359375 64.160156 L 168.917969 64.414062 C 163.21875 64.792969 158.03125 65.175781 152.964844 65.554688 C 153.851562 65.679688 153.980469 65.933594 156.132812 66.1875 L 153.597656 66.058594 C 151.320312 66.695312 145.875 66.695312 143.34375 66.945312 C 143.851562 66.695312 141.824219 66.566406 140.179688 66.566406 L 140.9375 66.695312 C 134.230469 66.566406 126.507812 66.945312 120.429688 66.945312 C 119.542969 66.945312 118.910156 66.820312 118.53125 66.695312 L 112.835938 66.945312 C 113.214844 66.566406 108.023438 66.566406 110.808594 66.3125 C 106.503906 66.820312 102.199219 66.566406 98.023438 67.074219 C 83.335938 67.199219 67.890625 67.453125 52.699219 68.085938 L 53.082031 68.210938 C 47.761719 68.464844 43.078125 69.226562 36.621094 68.972656 C 32.066406 69.476562 25.480469 69.730469 23.710938 70.492188 C 18.394531 70.617188 16.242188 70.996094 11.050781 71.125 C 12.441406 71.503906 5.984375 71.628906 8.519531 71.882812 C 11.9375 72.515625 12.1875 72.011719 15.101562 72.515625 L 14.972656 72.390625 C 28.648438 73.023438 42.320312 73.402344 56.246094 73.65625 C 65.488281 73.277344 75.488281 73.65625 85.109375 73.53125 C 95.492188 73.402344 106.632812 73.023438 115.492188 72.644531 C 117.644531 72.515625 119.164062 72.898438 120.9375 73.023438 C 129.039062 72.769531 139.546875 72.898438 148.660156 72.644531 L 148.15625 72.644531 C 153.09375 72.515625 156.765625 72.898438 161.449219 72.769531 C 161.449219 72.644531 162.207031 72.644531 162.460938 72.515625 C 163.347656 73.023438 190.566406 71.125 192.210938 71.378906 C 192.71875 71.378906 193.222656 71.378906 193.730469 71.25 C 203.859375 71.378906 214.238281 72.261719 222.972656 72.011719 C 224.875 71.757812 227.027344 71.503906 228.542969 71.125 C 230.0625 71.378906 230.316406 70.871094 232.214844 70.871094 C 236.898438 71.882812 239.683594 71.378906 237.28125 70.996094 C 241.078125 70.746094 245.003906 70.871094 248.421875 70.746094 C 250.066406 70.617188 251.585938 70.492188 253.230469 70.363281 C 254.625 70.238281 255.382812 70.363281 256.015625 70.617188 C 259.433594 70.363281 258.421875 70.746094 262.09375 70.746094 C 262.980469 71.125 271.207031 69.984375 272.222656 70.113281 L 271.589844 70.238281 C 275.765625 70.238281 278.675781 70.871094 282.730469 70.871094 C 294.25 70.871094 306.65625 70.363281 317.289062 70.238281 C 317.417969 69.859375 315.011719 70.363281 314.757812 69.859375 L 320.582031 69.859375 C 318.554688 70.238281 317.035156 70.492188 316.785156 70.363281 C 316.402344 70.363281 316.152344 70.492188 315.769531 70.617188 C 308.933594 71.25 301.589844 71.125 295.769531 71.882812 C 294.503906 72.261719 293.109375 72.644531 292.097656 73.148438 C 291.085938 73.023438 290.832031 73.53125 289.566406 73.65625 C 286.273438 73.023438 284.375 73.65625 286.148438 73.78125 C 283.488281 74.289062 280.957031 74.414062 278.550781 74.796875 C 277.539062 75.046875 276.398438 75.175781 275.386719 75.429688 C 274.5 75.683594 273.992188 75.554688 273.488281 75.300781 C 271.082031 75.683594 271.839844 75.429688 269.308594 75.554688 C 268.675781 75.300781 263.105469 76.949219 262.472656 76.820312 L 262.851562 76.695312 C 259.941406 76.949219 257.914062 76.441406 255.128906 76.820312 C 247.28125 77.453125 238.800781 78.71875 231.582031 79.480469 C 231.582031 79.859375 233.230469 79.226562 233.355469 79.734375 C 229.050781 80.113281 224.746094 80.238281 220.441406 80.617188 C 219.683594 80.617188 218.671875 80.492188 218.289062 80.492188 C 216.898438 80.492188 217.53125 80.746094 216.519531 80.871094 L 216.390625 80.492188 C 215 81 214.238281 80.367188 212.847656 80.617188 C 212.847656 80.746094 212.339844 80.871094 211.832031 80.871094 C 211.707031 80.492188 210.316406 81.125 210.316406 80.746094 C 210.0625 80.746094 209.808594 80.871094 209.429688 80.746094 C 208.921875 81 203.730469 82.519531 203.097656 82.769531 L 202.84375 82.769531 C 202.085938 82.898438 201.707031 83.152344 202.210938 83.152344 L 201.199219 83.277344 L 201.328125 83.277344 L 200.3125 83.402344 C 200.1875 83.402344 199.933594 83.277344 200.1875 83.023438 C 199.679688 83.277344 199.046875 83.402344 198.542969 83.402344 C 200.058594 83.402344 202.085938 83.53125 203.730469 83.785156 C 203.097656 84.039062 201.832031 83.910156 201.199219 84.039062 C 200.3125 83.910156 198.542969 83.910156 197.148438 83.910156 C 196.894531 83.910156 196.640625 84.417969 196.007812 84.289062 C 195.628906 84.039062 195.25 84.417969 194.617188 84.289062 C 195.25 84.039062 195.882812 84.039062 196.515625 84.039062 C 196.390625 83.65625 194.871094 84.039062 194.363281 83.910156 C 194.109375 84.039062 192.84375 84.039062 192.085938 84.289062 C 192.335938 84.039062 191.957031 84.039062 191.578125 84.039062 C 191.453125 84.039062 191.453125 84.039062 191.324219 84.164062 C 191.453125 84.164062 191.453125 84.164062 191.578125 84.039062 L 190.945312 84.039062 C 190.4375 84.039062 190.058594 84.289062 190.3125 84.289062 C 190.3125 84.417969 190.4375 84.417969 190.566406 84.417969 C 189.300781 84.921875 187.90625 85.304688 188.160156 85.304688 C 188.285156 85.304688 188.285156 85.429688 188.285156 85.429688 C 188.160156 85.429688 188.160156 85.554688 188.160156 85.554688 C 188.035156 85.683594 188.035156 85.683594 188.285156 85.683594 L 188.539062 85.554688 C 190.945312 85.429688 186.769531 87.707031 189.425781 87.582031 C 188.160156 87.328125 189.804688 87.074219 190.945312 86.949219 C 191.070312 87.074219 191.703125 87.203125 192.589844 87.203125 C 193.351562 87.074219 192.972656 86.949219 193.222656 86.824219 C 193.605469 86.824219 194.488281 86.824219 194.363281 87.074219 C 194.996094 86.695312 195.375 87.074219 196.007812 86.949219 C 196.640625 86.695312 196.007812 86.824219 196.390625 86.695312 C 197.402344 86.570312 198.667969 86.441406 199.425781 86.441406 C 199.808594 86.570312 200.691406 86.949219 200.058594 87.328125 C 198.667969 87.457031 200.566406 86.695312 199.046875 86.949219 C 199.808594 87.328125 197.78125 87.203125 197.527344 87.582031 C 198.035156 87.707031 199.046875 87.582031 199.808594 87.457031 L 199.679688 87.457031 C 200.441406 87.328125 201.832031 87.074219 202.59375 87.203125 C 202.464844 87.328125 202.71875 87.457031 202.210938 87.582031 L 203.226562 87.457031 C 203.351562 87.328125 203.476562 87.328125 203.226562 87.328125 C 203.730469 87.203125 204.113281 87.203125 204.492188 87.203125 C 204.617188 87.328125 209.683594 85.808594 209.554688 85.9375 L 210.316406 85.9375 C 208.542969 86.316406 204.617188 87.203125 205.378906 87.074219 C 206.011719 87.203125 213.351562 85.304688 213.859375 85.554688 C 214.367188 85.429688 215 85.429688 214.871094 85.175781 C 215.757812 85.175781 214.617188 85.554688 215.253906 85.683594 C 215.253906 85.683594 215.253906 85.554688 215.378906 85.554688 L 216.011719 85.683594 C 217.402344 85.304688 219.429688 85.429688 220.824219 84.796875 C 220.441406 85.050781 219.9375 85.429688 219.050781 85.683594 L 218.921875 85.554688 C 218.796875 85.683594 218.039062 85.808594 218.039062 85.9375 C 218.921875 85.9375 219.683594 85.808594 220.570312 85.554688 C 220.695312 85.554688 220.949219 85.554688 221.074219 85.683594 L 221.074219 85.554688 C 221.457031 85.683594 221.328125 85.683594 221.203125 85.683594 C 221.835938 86.1875 224.621094 84.921875 226.265625 85.050781 C 226.773438 84.921875 226.265625 84.921875 226.898438 84.796875 L 231.457031 84.796875 C 231.964844 84.542969 231.964844 84.417969 231.328125 84.289062 L 232.597656 84.164062 C 231.457031 84.921875 235.128906 84.417969 233.863281 85.175781 C 234.242188 85.304688 235 85.175781 235.761719 85.050781 C 235.761719 84.921875 235.886719 84.671875 236.773438 84.542969 C 238.039062 84.542969 237.785156 84.542969 238.800781 84.671875 C 239.050781 84.796875 238.671875 84.921875 238.800781 85.175781 C 240.445312 84.671875 240.320312 85.429688 241.835938 85.175781 C 242.851562 85.050781 244.75 84.796875 244.75 84.417969 C 246.015625 84.289062 246.140625 84.542969 246.015625 84.796875 L 247.027344 84.671875 C 243.609375 85.050781 240.066406 85.429688 236.394531 85.683594 C 244.242188 85.9375 253.484375 85.9375 259.054688 82.644531 C 259.816406 83.910156 267.410156 83.65625 267.535156 83.277344 C 269.054688 82.898438 270.574219 82.519531 272.222656 82.136719 C 282.09375 79.859375 293.109375 78.972656 304.375 78.214844 C 310.707031 77.707031 327.671875 75.933594 334.128906 75.429688 C 335.011719 75.300781 336.027344 75.300781 336.914062 75.175781 C 335.394531 75.300781 335.394531 75.300781 333.746094 75.300781 C 337.671875 74.414062 341.089844 73.65625 344.507812 73.023438 C 343.875 72.898438 343.75 72.769531 342.230469 72.644531 L 344.003906 72.515625 C 345.519531 71.757812 349.191406 71.378906 350.964844 70.871094 C 350.585938 71.25 351.976562 71.125 353.242188 70.996094 L 352.738281 70.871094 C 357.292969 70.363281 362.613281 69.476562 366.664062 68.972656 C 367.167969 68.84375 367.675781 68.972656 367.929688 68.972656 L 371.601562 68.339844 L 371.851562 68.339844 C 371.851562 68.71875 375.019531 68.210938 373.246094 68.71875 C 374.003906 68.464844 374.765625 68.339844 375.398438 68.210938 C 375.144531 68.464844 375.652344 68.464844 376.15625 68.464844 C 376.285156 68.464844 376.410156 68.464844 376.539062 68.339844 C 376.410156 68.339844 376.285156 68.339844 376.285156 68.464844 C 376.539062 68.464844 376.917969 68.464844 377.171875 68.59375 C 377.929688 68.59375 378.4375 68.464844 378.183594 68.339844 C 378.183594 68.210938 378.058594 68.210938 377.929688 68.210938 C 379.828125 67.832031 381.980469 67.453125 381.476562 67.453125 C 381.222656 67.453125 381.222656 67.328125 381.222656 67.328125 C 381.347656 67.328125 381.347656 67.328125 381.347656 67.199219 L 381.476562 67.074219 C 381.601562 67.074219 381.855469 66.945312 381.980469 66.945312 C 391.984375 65.554688 402.488281 63.910156 412.746094 61.882812 L 412.492188 61.757812 C 416.035156 60.996094 419.074219 59.855469 423.503906 59.476562 C 426.542969 58.589844 430.972656 57.703125 432.113281 56.691406 C 435.660156 56.058594 437.050781 55.554688 440.597656 54.792969 C 439.710938 55.171875 444.015625 54.539062 442.242188 54.539062 Z M 189.679688 85.9375 C 189.425781 85.9375 189.425781 85.808594 189.679688 85.683594 C 189.804688 85.808594 189.804688 85.9375 189.679688 85.9375 Z M 191.453125 84.921875 C 191.578125 84.921875 191.578125 84.796875 191.703125 84.796875 C 191.453125 84.671875 190.4375 84.796875 189.933594 84.921875 C 189.933594 85.050781 190.058594 85.050781 190.058594 85.175781 C 189.933594 85.304688 189.679688 85.304688 189.425781 85.429688 L 189.046875 85.429688 C 188.917969 85.429688 188.667969 85.554688 188.539062 85.554688 L 188.160156 85.554688 C 188.285156 85.429688 188.539062 85.554688 188.667969 85.429688 C 188.285156 85.429688 189.300781 85.050781 190.3125 84.671875 C 190.820312 84.671875 191.703125 84.671875 191.578125 84.796875 C 191.578125 84.796875 191.703125 84.796875 191.703125 84.671875 L 192.085938 84.671875 C 192.210938 84.671875 191.832031 84.796875 191.453125 84.921875 Z M 350.332031 65.554688 C 349.953125 65.554688 349.699219 65.554688 349.445312 65.425781 C 350.457031 65.300781 351.851562 65.175781 353.242188 65.046875 C 352.355469 65.300781 351.34375 65.425781 350.332031 65.554688 Z M 381.347656 67.960938 L 380.460938 67.960938 C 381.09375 67.960938 379.449219 68.339844 377.929688 68.59375 C 377.550781 68.59375 377.171875 68.59375 376.664062 68.464844 C 377.042969 68.339844 377.421875 68.339844 377.804688 68.210938 L 378.816406 68.210938 C 378.816406 68.210938 378.816406 68.085938 378.691406 68.085938 C 379.195312 67.960938 379.703125 67.960938 380.207031 67.832031 L 380.714844 67.832031 C 381.09375 67.960938 381.222656 67.960938 381.347656 67.960938 Z M 381.347656 67.960938 " fill-opacity="1" fill-rule="nonzero"/></g><path fill="#058693" d="M 375.523438 69.351562 C 375.398438 69.351562 375.652344 69.226562 375.90625 69.226562 C 375.398438 69.226562 375.144531 69.351562 375.523438 69.351562 Z M 375.523438 69.351562 " fill-opacity="1" fill-rule="nonzero"/><path fill="#058693" d="M 376.03125 69.097656 C 376.15625 69.097656 376.410156 68.972656 376.539062 68.972656 C 376.285156 69.097656 376.15625 69.097656 376.03125 69.097656 Z M 376.03125 69.097656 " fill-opacity="1" fill-rule="nonzero"/></svg>